# xmcd CD database file
#
# Track frame offsets:
#	150
#	33619
#	96524
#	154224
#	206629
#	256882
#	293657
#
# Disc length: 4348 seconds
#
# Revision: 0
# Processed by: cddbd v1.5.1PL0 Copyright (c) Steve Scherf et al.
# Submitted via: CDex 1.51
#
DISCID=6310fa07
DTITLE=Nicolas Simion Quartet - Oriental Gates
DYEAR=2004
DGENRE=Jazz
TTITLE0=Bartok Goes New Orleans
TTITLE1=An Evening in Thessaloniki - At the Oriental Gate
TTITLE2=Dear Arnold
TTITLE3=Bird Talk
TTITLE4=Afro-Transdanubian Groove
TTITLE5=Slovakian Folk Song
TTITLE6=Blues Connotation
EXTD=YEAR: 2004
EXTT0=
EXTT1=
EXTT2=
EXTT3=
EXTT4=
EXTT5=
EXTT6=
PLAYORDER=
